<svg width="24" height="24" viewBox="0 0 24 24" fill="none" xmlns="http://www.w3.org/2000/svg">
<path d="M10.8333 7.5L10.8333 7.21206L10.5843 7.06754L3.12766 2.74062L2.37671 2.30486L2.37671 3.17308L2.37671 21L2.37671 21.8356L3.11307 21.4406L10.5697 17.4406L10.8333 17.2992L10.8333 17L10.8333 7.5Z" fill="#9CC7E3" stroke="#0F77BD"/>
<path d="M13.1667 7.5L13.1667 7.21206L13.4157 7.06754L20.8723 2.74062L21.6233 2.30486L21.6233 3.17308L21.6233 21L21.6233 21.8356L20.8869 21.4406L13.4303 17.4406L13.1667 17.2992L13.1667 17L13.1667 7.5Z" fill="#9CC7E3" stroke="#0F77BD"/>
<path fill-rule="evenodd" clip-rule="evenodd" d="M5.11716 12.2881C4.96095 12.129 4.96095 11.871 5.11716 11.7119L7.66274 9.11932C7.81895 8.96023 8.07222 8.96023 8.22843 9.11932C8.38464 9.27842 8.38464 9.53636 8.22843 9.69546L6.36569 11.5926H17.6343L15.7716 9.69546C15.6154 9.53636 15.6154 9.27842 15.7716 9.11932C15.9278 8.96023 16.181 8.96023 16.3373 9.11932L18.8828 11.7119C19.0391 11.871 19.0391 12.129 18.8828 12.2881L16.3373 14.8807C16.181 15.0398 15.9278 15.0398 15.7716 14.8807C15.6154 14.7216 15.6154 14.4636 15.7716 14.3045L17.6343 12.4074H6.36569L8.22843 14.3045C8.38464 14.4636 8.38464 14.7216 8.22843 14.8807C8.07222 15.0398 7.81895 15.0398 7.66274 14.8807L5.11716 12.2881Z" fill="#0F77BD"/>
</svg>
