<svg width="64" height="64" viewBox="0 0 64 64" fill="none" xmlns="http://www.w3.org/2000/svg">
<path d="M29.5 21L29.5 20.7282L29.272 20.5804L6.9021 6.08043L6.13014 5.58005L6.13014 6.5L6.13013 58L6.13013 58.866L6.88014 58.433L29.25 45.5174L29.5 45.3731L29.5 45.0844L29.5 21Z" fill="#0F77BD" fill-opacity="0.5" stroke="white"/>
<path d="M6.4021 5.16048L5.63014 4.6601L5.63014 5.58005L5.63013 58.866L5.63013 59.7321L6.38014 59.299L29.75 45.8061L30 45.6618L30 45.3731L30 20.7282L30 20.4565L29.772 20.3087L6.4021 5.16048ZM28 44.5071L7.63013 56.2679L7.63014 8.33989L28 21.5435L28 44.5071Z" fill="#0F77BD" stroke="white"/>
<path d="M35.5 45L35.5 45.2718L35.728 45.4196L58.0979 59.9196L58.8699 60.4199L58.8699 59.5L58.8699 8L58.8699 7.13397L58.1199 7.56699L35.75 20.4826L35.5 20.6269L35.5 20.9156L35.5 45Z" fill="#0F77BD" fill-opacity="0.5" stroke="white"/>
<path d="M58.5979 60.8395L59.3699 61.3399L59.3699 60.4199L59.3699 7.13397L59.3699 6.26793L58.6199 6.70096L35.25 20.1939L35 20.3382L35 20.6269L35 45.2718L35 45.5435L35.228 45.6913L58.5979 60.8395ZM37 21.4929L57.3699 9.73207L57.3699 57.6601L37 44.4565L37 21.4929Z" fill="#0F77BD" stroke="white"/>
<mask id="path-5-outside-1_120_13" maskUnits="userSpaceOnUse" x="13" y="23.636" width="37" height="17" fill="black">
<rect fill="white" x="13" y="23.636" width="37" height="17"/>
<path fill-rule="evenodd" clip-rule="evenodd" d="M14.2929 32.7071C13.9024 32.3166 13.9024 31.6834 14.2929 31.2929L20.6569 24.9289C21.0474 24.5384 21.6805 24.5384 22.0711 24.9289C22.4616 25.3195 22.4616 25.9526 22.0711 26.3431L17.4142 31H45.5858L40.9289 26.3431C40.5384 25.9526 40.5384 25.3195 40.9289 24.9289C41.3195 24.5384 41.9526 24.5384 42.3431 24.9289L48.7071 31.2929C49.0976 31.6834 49.0976 32.3166 48.7071 32.7071L42.3431 39.0711C41.9526 39.4616 41.3195 39.4616 40.9289 39.0711C40.5384 38.6805 40.5384 38.0474 40.9289 37.6569L45.5858 33H17.4142L22.0711 37.6569C22.4616 38.0474 22.4616 38.6805 22.0711 39.0711C21.6805 39.4616 21.0474 39.4616 20.6569 39.0711L14.2929 32.7071Z"/>
</mask>
<path fill-rule="evenodd" clip-rule="evenodd" d="M14.2929 32.7071C13.9024 32.3166 13.9024 31.6834 14.2929 31.2929L20.6569 24.9289C21.0474 24.5384 21.6805 24.5384 22.0711 24.9289C22.4616 25.3195 22.4616 25.9526 22.0711 26.3431L17.4142 31H45.5858L40.9289 26.3431C40.5384 25.9526 40.5384 25.3195 40.9289 24.9289C41.3195 24.5384 41.9526 24.5384 42.3431 24.9289L48.7071 31.2929C49.0976 31.6834 49.0976 32.3166 48.7071 32.7071L42.3431 39.0711C41.9526 39.4616 41.3195 39.4616 40.9289 39.0711C40.5384 38.6805 40.5384 38.0474 40.9289 37.6569L45.5858 33H17.4142L22.0711 37.6569C22.4616 38.0474 22.4616 38.6805 22.0711 39.0711C21.6805 39.4616 21.0474 39.4616 20.6569 39.0711L14.2929 32.7071Z" fill="#0F77BD"/>
<path d="M14.2929 31.2929L15 32L15 32L14.2929 31.2929ZM14.2929 32.7071L15 32L15 32L14.2929 32.7071ZM20.6569 24.9289L21.364 25.636L20.6569 24.9289ZM22.0711 26.3431L21.364 25.636L22.0711 26.3431ZM17.4142 31L16.7071 30.2929L15 32H17.4142V31ZM45.5858 31V32H48L46.2929 30.2929L45.5858 31ZM40.9289 26.3431L40.2218 27.0503L40.2218 27.0503L40.9289 26.3431ZM42.3431 24.9289L41.636 25.636L41.636 25.636L42.3431 24.9289ZM48.7071 31.2929L49.4142 30.5858L49.4142 30.5858L48.7071 31.2929ZM48.7071 32.7071L49.4142 33.4142L49.4142 33.4142L48.7071 32.7071ZM42.3431 39.0711L41.636 38.364L41.636 38.364L42.3431 39.0711ZM40.9289 37.6569L40.2218 36.9497L40.2218 36.9497L40.9289 37.6569ZM45.5858 33L46.2929 33.7071L48 32H45.5858V33ZM17.4142 33V32H15L16.7071 33.7071L17.4142 33ZM22.0711 37.6569L22.7782 36.9497L22.7782 36.9497L22.0711 37.6569ZM20.6569 39.0711L19.9497 39.7782L19.9497 39.7782L20.6569 39.0711ZM13.5858 30.5858C12.8047 31.3668 12.8047 32.6332 13.5858 33.4142L15 32V32L13.5858 30.5858ZM19.9497 24.2218L13.5858 30.5858L15 32L21.364 25.636L19.9497 24.2218ZM22.7782 24.2218C21.9971 23.4408 20.7308 23.4408 19.9497 24.2218L21.364 25.636H21.364L22.7782 24.2218ZM22.7782 27.0503C23.5592 26.2692 23.5592 25.0029 22.7782 24.2218L21.364 25.636V25.636L22.7782 27.0503ZM18.1213 31.7071L22.7782 27.0503L21.364 25.636L16.7071 30.2929L18.1213 31.7071ZM45.5858 30H17.4142V32H45.5858V30ZM40.2218 27.0503L44.8787 31.7071L46.2929 30.2929L41.636 25.636L40.2218 27.0503ZM40.2218 24.2218C39.4408 25.0029 39.4408 26.2692 40.2218 27.0503L41.636 25.636V25.636L40.2218 24.2218ZM43.0503 24.2218C42.2692 23.4408 41.0029 23.4408 40.2218 24.2218L41.636 25.636H41.636L43.0503 24.2218ZM49.4142 30.5858L43.0503 24.2218L41.636 25.636L48 32L49.4142 30.5858ZM49.4142 33.4142C50.1953 32.6332 50.1953 31.3668 49.4142 30.5858L48 32V32L49.4142 33.4142ZM43.0503 39.7782L49.4142 33.4142L48 32L41.636 38.364L43.0503 39.7782ZM40.2218 39.7782C41.0029 40.5592 42.2692 40.5592 43.0503 39.7782L41.636 38.364H41.636L40.2218 39.7782ZM40.2218 36.9497C39.4408 37.7308 39.4408 38.9971 40.2218 39.7782L41.636 38.364V38.364L40.2218 36.9497ZM44.8787 32.2929L40.2218 36.9497L41.636 38.364L46.2929 33.7071L44.8787 32.2929ZM17.4142 34H45.5858V32H17.4142V34ZM22.7782 36.9497L18.1213 32.2929L16.7071 33.7071L21.364 38.364L22.7782 36.9497ZM22.7782 39.7782C23.5592 38.9971 23.5592 37.7308 22.7782 36.9497L21.364 38.364V38.364L22.7782 39.7782ZM19.9497 39.7782C20.7308 40.5592 21.9971 40.5592 22.7782 39.7782L21.364 38.364H21.364L19.9497 39.7782ZM13.5858 33.4142L19.9497 39.7782L21.364 38.364L15 32L13.5858 33.4142Z" fill="white" mask="url(#path-5-outside-1_120_13)"/>
</svg>
