<svg width="108" height="108" viewBox="0 0 108 108" fill="none" xmlns="http://www.w3.org/2000/svg">
<rect width="108" height="108" fill="white"/>
<path d="M50.0556 42L50.0556 41.7121L49.8065 41.5675L29.9222 30.0291L29.1712 29.5933L29.1712 30.4615L29.1712 78L29.1712 78.8356L29.9076 78.4406L49.7919 67.7739L50.0556 67.6325L50.0556 67.3333L50.0556 42Z" fill="#9CC7E3" stroke="#0F77BD"/>
<path d="M57.9444 42L57.9444 41.7121L58.1935 41.5675L78.0778 30.0291L78.8288 29.5933L78.8288 30.4615L78.8288 78L78.8288 78.8356L78.0924 78.4406L58.2081 67.7739L57.9444 67.6325L57.9444 67.3333L57.9444 42Z" fill="#9CC7E3" stroke="#0F77BD"/>
<path fill-rule="evenodd" clip-rule="evenodd" d="M35.6458 54.7682C35.2292 54.3439 35.2292 53.6561 35.6458 53.2318L42.434 46.3182C42.8505 45.8939 43.5259 45.8939 43.9425 46.3182C44.359 46.7424 44.359 47.4303 43.9425 47.8546L38.9752 52.9136H69.0248L64.0575 47.8546C63.641 47.4303 63.641 46.7424 64.0575 46.3182C64.4741 45.8939 65.1495 45.8939 65.566 46.3182L72.3542 53.2318C72.7708 53.6561 72.7708 54.3439 72.3542 54.7682L65.566 61.6818C65.1495 62.1061 64.4741 62.1061 64.0575 61.6818C63.641 61.2576 63.641 60.5697 64.0575 60.1454L69.0248 55.0864H38.9752L43.9425 60.1454C44.359 60.5697 44.359 61.2576 43.9425 61.6818C43.5259 62.1061 42.8505 62.1061 42.434 61.6818L35.6458 54.7682Z" fill="#0F77BD"/>
</svg>
