<svg width="108" height="108" viewBox="0 0 108 108" fill="none" xmlns="http://www.w3.org/2000/svg">
<rect width="108" height="108" fill="white"/>
<path d="M50.8889 42L50.8889 41.2322L50.2248 40.8468L30.3404 29.3083L28.3379 28.1463L28.3379 30.4615L28.3379 78L28.3379 80.2283L30.3015 79.175L50.1858 68.5083L50.8889 68.1312L50.8889 67.3333L50.8889 42Z" fill="#9CC7E3" stroke="#0F77BD" stroke-width="2.66667"/>
<path d="M57.1111 42L57.1111 41.2322L57.7753 40.8468L77.6596 29.3083L79.6621 28.1463L79.6621 30.4615L79.6621 78L79.6621 80.2283L77.6985 79.175L57.8142 68.5083L57.1111 68.1312L57.1111 67.3333L57.1111 42Z" fill="#9CC7E3" stroke="#0F77BD" stroke-width="2.66667"/>
<path fill-rule="evenodd" clip-rule="evenodd" d="M35.6458 54.7682C35.2292 54.3439 35.2292 53.6561 35.6458 53.2318L42.434 46.3182C42.8505 45.8939 43.5259 45.8939 43.9425 46.3182C44.359 46.7424 44.359 47.4303 43.9425 47.8546L38.9752 52.9136H69.0249L64.0575 47.8546C63.641 47.4303 63.641 46.7424 64.0575 46.3182C64.4741 45.8939 65.1495 45.8939 65.566 46.3182L72.3543 53.2318C72.7708 53.6561 72.7708 54.3439 72.3543 54.7682L65.566 61.6818C65.1495 62.1061 64.4741 62.1061 64.0575 61.6818C63.641 61.2576 63.641 60.5697 64.0575 60.1454L69.0249 55.0864H38.9752L43.9425 60.1454C44.359 60.5697 44.359 61.2576 43.9425 61.6818C43.5259 62.1061 42.8505 62.1061 42.434 61.6818L35.6458 54.7682Z" fill="#0F77BD"/>
</svg>
