<svg width="48" height="48" viewBox="0 0 48 48" fill="none" xmlns="http://www.w3.org/2000/svg">
<rect width="48" height="48" fill="white"/>
<path d="M23.0185 20L23.0185 19.7121L22.7695 19.5675L16.1414 15.7214L15.3904 15.2856L15.3904 16.1539L15.3904 32L15.3904 32.8356L16.1268 32.4406L22.7549 28.8851L23.0185 28.7436L23.0185 28.4444L23.0185 20Z" fill="#9CC7E3" stroke="#0F77BD"/>
<path d="M24.9815 20L24.9815 19.7121L25.2305 19.5675L31.8586 15.7214L32.6096 15.2856L32.6096 16.1539L32.6096 32L32.6096 32.8356L31.8732 32.4406L25.2451 28.8851L24.9815 28.7436L24.9815 28.4444L24.9815 20Z" fill="#9CC7E3" stroke="#0F77BD"/>
<path fill-rule="evenodd" clip-rule="evenodd" d="M17.8819 24.2561C17.7431 24.1146 17.7431 23.8854 17.8819 23.7439L20.1447 21.4394C20.2835 21.298 20.5086 21.298 20.6475 21.4394C20.7863 21.5808 20.7863 21.8101 20.6475 21.9515L18.9917 23.6379H29.0083L27.3525 21.9515C27.2137 21.8101 27.2137 21.5808 27.3525 21.4394C27.4914 21.298 27.7165 21.298 27.8553 21.4394L30.1181 23.7439C30.2569 23.8854 30.2569 24.1146 30.1181 24.2561L27.8553 26.5606C27.7165 26.702 27.4914 26.702 27.3525 26.5606C27.2137 26.4192 27.2137 26.1899 27.3525 26.0485L29.0083 24.3621H18.9917L20.6475 26.0485C20.7863 26.1899 20.7863 26.4192 20.6475 26.5606C20.5086 26.702 20.2835 26.702 20.1447 26.5606L17.8819 24.2561Z" fill="#0F77BD"/>
</svg>
